# xmcd CD database file
#
# Track frame offsets:
#	150
#	14722
#	27697
#	38722
#	51312
#	63832
#	73555
#	84737
#	98881
#	111125
#	123261
#	134572
#	149517
#	160007
#	171957
#	183536
#	194736
#	209242
#	222013
#	234285
#	247548
#	262111
#
# Disc length: 3666 seconds
#
# Revision: 0
# Processed by: cddbd v1.5.1PL0 Copyright (c) Steve Scherf et al.
# Submitted via: CDex 1.51
#
DISCID=500e5016
DTITLE=Tommy Dorsey - Quadromania - CD1
DYEAR=2005
DGENRE=Jazz
TTITLE0=Weary Blues
TTITLE1=Royal Garden Blues
TTITLE2=There's Frost On The Moon
TTITLE3=Tea On The Terrace
TTITLE4=I'm In A Dancing Mood
TTITLE5=Jamboree
TTITLE6=The Goona Goo
TTITLE7=If My Heart Could Only Talk
TTITLE8=On A Little Bamboo Bridge
TTITLE9=How Could You
TTITLE10=Sweet Is The World For You
TTITLE11=In A Little Hula Heaven
TTITLE12=I'll Dream My Way To Heaven
TTITLE13=Mendelssohn's Spring Song
TTITLE14=The Sheik Of Araby
TTITLE15=Boogie Woogie
TTITLE16=Stardust
TTITLE17=What Is This Thing Called Love
TTITLE18=There Are Such Things 
TTITLE19=Opus ONe
TTITLE20=On The Sunny Side Of The Street
TTITLE21=Chicago
EXTD=YEAR: 2005
EXTT0=
EXTT1=
EXTT2=
EXTT3=
EXTT4=
EXTT5=
EXTT6=
EXTT7=
EXTT8=
EXTT9=
EXTT10=
EXTT11=
EXTT12=
EXTT13=
EXTT14=
EXTT15=
EXTT16=
EXTT17=
EXTT18=
EXTT19=
EXTT20=
EXTT21=
PLAYORDER=
